<svg xmlns="http://www.w3.org/2000/svg" viewBox="0 0 93.57 194.93"><defs><style>.cls-1{fill:#58ad9d;}.cls-1,.cls-2{fill-rule:evenodd;}.cls-2{fill:#814c3c;}</style></defs><g id="Layer_2" data-name="Layer 2"><g id="Objects"><path class="cls-1" d="M56,4.32c39.33,37.12,47.46,78.6,25.79,119.14C67.41,150.42,32,156.05,13,127.61-12.79,89,1.84,34.91,39,2.17,43.72-2,51.91.43,56,4.32Z"/><path class="cls-2" d="M43.14,194.93C45,153.24,42.14,70,47,70c3.63,0,2,82.15,3.44,125Z"/><path class="cls-2" d="M44.49,138.37c10.18-10,26.76-33.15,29.53-30.84,2.07,1.73-16.8,22.45-25.36,34.32Z"/><path class="cls-2" d="M44.49,120.23c10.18-10,26.76-33.15,29.53-30.84,2.07,1.73-16.8,22.45-25.36,34.32Z"/><path class="cls-2" d="M48.65,126.27c-10.17-10-26.75-33.15-29.53-30.83-2.06,1.73,16.81,22.44,25.37,34.31Z"/><path class="cls-2" d="M48.65,108.13C38.48,98.11,21.9,75,19.12,77.3,17.06,79,35.93,99.74,44.49,111.61Z"/></g></g></svg>