<svg xmlns="http://www.w3.org/2000/svg" viewBox="0 0 143.99 163.67"><defs><style>.cls-1{fill:#58ad7a;}.cls-1,.cls-2,.cls-3,.cls-4{fill-rule:evenodd;}.cls-2{fill:#814c3c;}.cls-3{fill:#7acf9c;}.cls-4{fill:#6bc28e;}</style></defs><g id="Layer_2" data-name="Layer 2"><g id="Objects"><path class="cls-1" d="M122.28,12.42c44.84,43.32,16.19,97.41-49.09,107.75s-90-47.58-61.46-88.64S99.37-4.27,122.28,12.42Z"/><path class="cls-2" d="M61.51,163.67c4.32-20.76-2.32-62.23,9-62.23,8.46,0,4.72,40.9,8,62.23Z"/><path class="cls-2" d="M33.41,82.87c8.09-2.47-2,13.73,16,17.19,20.5,3.94,31.81-.3,41.84-3.13,8.51-2.39,3.88-22.65,12.5-19.14,7.18,2.92,3.46,22.6-8.51,27.39-14.67,5.87-42,5.85-53.18,2.66S27.09,84.79,33.41,82.87Z"/><path class="cls-2" d="M66.53,104.06c5-3.88,8.28-7.84,11.44-11.32,4.77-5.24-7-17.06.37-18.33,6.12-1.06,12,13.9,5.85,22.24-3.21,4.38-8.46,9-14.11,13.09Z"/><path class="cls-2" d="M57.61,76c7.28,2.2-8.32,9.3,3.38,20.84a81.35,81.35,0,0,0,7.79,6.78L64.57,110c-5.6-3.87-10.32-7.84-13-10.94C44.79,91,51.92,74.33,57.61,76Z"/><path class="cls-3" d="M54,20c5,4.83,1.8,10.86-5.48,12s-10-5.3-6.85-9.88S51.4,18.17,54,20Z"/><path class="cls-3" d="M106,56.94c.57-4,4.48-4.53,7.49-1.51s.92,6.51-2.31,6.57S106,58.77,106,56.94Z"/><path class="cls-4" d="M126,37.29c-4.13,5.59-10.53,3.21-12.63-3.86s4-10.64,8.91-8.09S127.49,34.51,126,37.29Z"/><path class="cls-4" d="M17.81,84.64c-6.66-2-6.57-8.84-.62-13.19s11.35.13,10.61,5.66S20.93,85.12,17.81,84.64Z"/><path class="cls-3" d="M126.56,75.14c5,4.83,1.81,10.86-5.47,12s-10-5.31-6.86-9.89S124,73.28,126.56,75.14Z"/><path class="cls-4" d="M68.17,94.22c-4-.42-4.7-4.3-1.8-7.43s6.47-1.17,6.65,2S70,94.15,68.17,94.22Z"/><path class="cls-4" d="M39.87,57.65c-4-.41-4.71-4.3-1.8-7.43s6.46-1.17,6.65,2.05S41.7,57.58,39.87,57.65Z"/><path class="cls-3" d="M79,20.91c-2.69-3-.59-6.35,3.66-6.71s5.57,3.48,3.54,6S80.37,22.09,79,20.91Z"/><path class="cls-3" d="M73.55,65.09c-2.68-3-.59-6.34,3.67-6.71s5.57,3.49,3.54,6S75,66.27,73.55,65.09Z"/><path class="cls-4" d="M79.13,50.24C75,55.83,68.6,53.45,66.5,46.38s4-10.64,8.9-8.09S80.64,47.46,79.13,50.24Z"/></g></g></svg>