<svg xmlns="http://www.w3.org/2000/svg" viewBox="0 0 138.75 195.16"><defs><style>.cls-1{fill:#d77d3e;}.cls-1,.cls-2,.cls-3{fill-rule:evenodd;}.cls-2{fill:#814c3c;}.cls-3{fill:#e8a16f;}</style></defs><g id="Layer_2" data-name="Layer 2"><g id="Objects"><path class="cls-1" d="M124.62,59.27a25.7,25.7,0,0,1-7.75,48.36,12.83,12.83,0,0,1-16.7,11.24c0,.42,0,.83,0,1.25a19.91,19.91,0,0,1-35.68,12.16,25.69,25.69,0,0,1-45.26-16.66h0a12.84,12.84,0,0,1-9.92-21,19.92,19.92,0,0,1,.32-34A12.85,12.85,0,0,1,21,41.71h.23a20.42,20.42,0,0,1-.65-5.1,19.92,19.92,0,0,1,17-19.69A25.7,25.7,0,0,1,86,17.44,19.92,19.92,0,0,1,116.91,34a19.47,19.47,0,0,1-.27,3.26,12.84,12.84,0,0,1,8,22Z"/><path class="cls-2" d="M47.72,195.16c20.09-43.93-1.35-105.7,13-125.74,13.41-18.78,19.39,82.65,11.5,125.74Z"/><path class="cls-3" d="M64.75,33.68a18.3,18.3,0,0,1,2.18,16.23c-1.22,3.67-4.21,4.44-5.81.56-2.17-5.25-.94-12.62,2.19-17.08C63.71,32.83,64.4,33.15,64.75,33.68Z"/><path class="cls-3" d="M113.18,103a12.68,12.68,0,0,1-11.26-1.46c-2.25-1.48-2.22-3.62.66-4,3.92-.51,8.63,1.64,11.06,4.54C113.94,102.45,113.6,102.85,113.18,103Z"/><path class="cls-3" d="M112.18,43a18.27,18.27,0,0,1-11.54,11.61c-3.65,1.27-6.08-.63-4-4.26,2.84-4.93,9.43-8.44,14.88-8.67C112.23,41.68,112.39,42.43,112.18,43Z"/><path class="cls-3" d="M98.6,86.88a18.3,18.3,0,0,1-16.23-2.2c-3.21-2.15-3.16-5.23,1-5.75,5.64-.7,12.42,2.44,15.89,6.64C99.7,86.11,99.2,86.68,98.6,86.88Z"/><path class="cls-3" d="M107.54,70.49a10.24,10.24,0,0,1-9.16-.19c-1.92-1-2.09-2.71.19-3.26a10.87,10.87,0,0,1,9.26,2.68C108.11,70,107.87,70.34,107.54,70.49Z"/><path class="cls-3" d="M88.49,121.22A12.4,12.4,0,0,1,81,113c-.74-2.52.62-4.1,3-2.56,3.24,2.08,5.4,6.66,5.39,10.35C89.41,121.29,88.89,121.38,88.49,121.22Z"/><path class="cls-3" d="M86.21,42.61a18.25,18.25,0,0,1-3.65,16c-2.42,3-5.49,2.69-5.63-1.5-.2-5.69,3.54-12.16,8-15.23C85.54,41.45,86.07,42,86.21,42.61Z"/><path class="cls-3" d="M42,19.3a18.28,18.28,0,0,1,9.34,13.45c.59,3.82-1.72,5.87-4.91,3.15-4.33-3.69-6.59-10.8-5.84-16.2C40.71,19,41.47,19,42,19.3Z"/><path class="cls-3" d="M41.05,50.65A11.9,11.9,0,0,1,50.3,56c1.41,2.09.61,3.94-2,3.22a12.67,12.67,0,0,1-8-7.95C40.2,50.84,40.64,50.62,41.05,50.65Z"/><path class="cls-3" d="M21,68.83a18.26,18.26,0,0,1,16.35.86c3.39,1.87,3.59,5-.52,5.81-5.57,1.16-12.58-1.41-16.38-5.32C20,69.69,20.44,69.07,21,68.83Z"/><path class="cls-3" d="M20.2,94.07a12.17,12.17,0,0,1,9.25-5.78C32,88,33.3,89.62,31.39,91.65c-2.59,2.77-7.41,4-11,3.37C20,94.93,20,94.43,20.2,94.07Z"/><path class="cls-3" d="M39.29,100.56a18.24,18.24,0,0,1,6.28-15.11c2.89-2.57,5.86-1.73,5.3,2.43-.77,5.63-5.54,11.38-10.49,13.66C39.75,101.83,39.32,101.2,39.29,100.56Z"/><path class="cls-3" d="M77,24.53a10.28,10.28,0,0,1-2,8.94c-1.36,1.69-3.08,1.5-3.16-.84a10.93,10.93,0,0,1,4.51-8.54C76.62,23.87,76.92,24.18,77,24.53Z"/><path class="cls-3" d="M42.1,128.17A13.94,13.94,0,0,1,44.76,116c1.82-2.31,4.16-2.08,4.31,1.11.19,4.33-2.61,9.29-6,11.67C42.62,129.05,42.21,128.64,42.1,128.17Z"/><path class="cls-3" d="M128,84.53a10.19,10.19,0,0,1-9.15-.19c-1.93-1-2.1-2.7.18-3.26a10.91,10.91,0,0,1,9.26,2.68C128.57,84,128.33,84.38,128,84.53Z"/></g></g></svg>