<svg xmlns="http://www.w3.org/2000/svg" viewBox="0 0 161.01 195.16"><defs><style>.cls-1{fill:#97ad28;}.cls-1,.cls-2,.cls-3{fill-rule:evenodd;}.cls-2{fill:#814c3c;}.cls-3{fill:#b9cf4b;}</style></defs><g id="Layer_2" data-name="Layer 2"><g id="Objects"><path class="cls-1" d="M160.85,51.69c2.7,34.39-28.53,41.52-34,48.91s4.55,37.39-24.24,50.59c-24.8,11.38-46.48-10.63-57.18-15.82-16.05-7.78-41.43-16-45-38.19-3.95-24.57,24.69-39.4,28.71-49.54,4.37-11,5.13-36.14,23.53-44.47C75.92-7.38,91,11.23,106,17.89,121.53,24.75,158.61,23.15,160.85,51.69Z"/><path class="cls-2" d="M65.63,195.16c6.22-53.52-3.33-160.42,13-160.42,12.15,0,6.78,105.45,11.5,160.42Z"/><path class="cls-3" d="M131,37.16c-.84,6.41-4.3,10.1-9.74,10.83-3.63.49-6.65-2.55-5.22-6.38,1.94-5.2,8.21-7.57,14-6.25A1.64,1.64,0,0,1,131,37.16Z"/><path class="cls-3" d="M154,62.87c-4.78,4.35-9.79,4.95-14.43,2-3.09-2-3.44-6.24.13-8.25,4.83-2.72,11.15-.49,14.71,4.24A1.63,1.63,0,0,1,154,62.87Z"/><path class="cls-3" d="M8,97.3c6.33,1.31,11-.74,13.44-5.64,1.65-3.26-.23-7.12-4.32-7-5.55.13-9.84,5.27-10.5,11.15C6.56,96.53,7.36,97.17,8,97.3Z"/><path class="cls-3" d="M46.52,31.38c.74,6.42,4.13,10.17,9.57,11,3.61.55,6.68-2.44,5.32-6.29-1.86-5.23-8.08-7.7-13.88-6.48C46.79,29.75,46.44,30.71,46.52,31.38Z"/><path class="cls-3" d="M48.16,64.7c4.06,5,8.93,6.39,14,4.18,3.35-1.47,4.34-5.64,1.13-8.17-4.36-3.43-11-2.18-15.19,1.94A1.63,1.63,0,0,0,48.16,64.7Z"/><path class="cls-3" d="M18.16,69.35c4.07,5,8.94,6.38,14,4.17,3.35-1.47,4.34-5.64,1.13-8.17-4.36-3.43-10.95-2.18-15.19,2A1.64,1.64,0,0,0,18.16,69.35Z"/><path class="cls-3" d="M71.52,8.87c-3.86,5.19-4,10.24-.57,14.56,2.25,2.88,6.54,2.81,8.19-.93,2.24-5.08-.61-11.15-5.66-14.24A1.64,1.64,0,0,0,71.52,8.87Z"/><path class="cls-3" d="M100.8,44.67c2.91,5.78,2.13,10.77-2,14.44-2.71,2.45-6.93,1.64-7.9-2.33-1.33-5.39,2.52-10.88,8-13A1.64,1.64,0,0,1,100.8,44.67Z"/><path class="cls-3" d="M103.52,21.64c2.18,6.09.8,11-3.7,14.1-3,2.09-7.08.77-7.56-3.29-.66-5.51,3.83-10.48,9.56-12C102.55,20.3,103.29,21,103.52,21.64Z"/><path class="cls-3" d="M136.88,78.94c-4.78,4.35-9.8,4.94-14.44,2-3.08-2-3.43-6.23.13-8.24,4.83-2.72,11.15-.49,14.72,4.24A1.64,1.64,0,0,1,136.88,78.94Z"/><path class="cls-3" d="M107.86,141.5c-6.46.36-10.73-2.34-12.47-7.56-1.15-3.46,1.27-7,5.3-6.32,5.47.94,9,6.65,8.76,12.57C109.42,140.94,108.54,141.46,107.86,141.5Z"/><path class="cls-3" d="M53.08,136.85c6.45.37,10.72-2.34,12.46-7.55,1.16-3.47-1.27-7-5.3-6.32-5.47.94-9,6.65-8.75,12.57C51.52,136.3,52.4,136.82,53.08,136.85Z"/><path class="cls-3" d="M19.66,114.25c6,2.49,10.89,1.36,14.27-3,2.24-2.88,1.13-7-2.9-7.72-5.47-.93-10.66,3.3-12.43,9C18.37,113.22,19,114,19.66,114.25Z"/><path class="cls-3" d="M102.73,105.61c-6.45.37-10.72-2.34-12.46-7.55-1.16-3.47,1.27-7,5.3-6.32,5.47.94,9,6.65,8.75,12.57C104.29,105.06,103.41,105.57,102.73,105.61Z"/><path class="cls-3" d="M51.52,102.54c6,2.48,10.89,1.35,14.26-3,2.24-2.89,1.13-7-2.9-7.72-5.47-.94-10.66,3.29-12.43,8.94A1.65,1.65,0,0,0,51.52,102.54Z"/><path class="cls-2" d="M74.16,117.75c27.86-10,28.44-21.45,35-34.56,9.6-19.29,9,27.25-25.82,43.44Z"/><path class="cls-2" d="M82.46,106.56C54.61,96.6,54,85.1,47.51,72c-9.6-19.29-9,27.25,25.81,43.44Z"/><path class="cls-2" d="M74.85,88.75c21.89-7.83,22.34-16.86,27.47-27.16C109.86,46.43,109.4,83,82,95.72Z"/><path class="cls-2" d="M79.07,69.46C57.19,61.64,56.73,52.6,51.61,42.31c-7.54-15.16-7.08,21.41,20.28,34.13Z"/></g></g></svg>