<svg xmlns="http://www.w3.org/2000/svg" viewBox="0 0 174.9 199.21"><defs><style>.cls-1{fill:#d7bf45;}.cls-1,.cls-2{fill-rule:evenodd;}.cls-2{fill:#814c3c;}</style></defs><g id="Layer_2" data-name="Layer 2"><g id="Objects"><path class="cls-1" d="M147.17,61.55a28.62,28.62,0,0,1,11.55,54.38,18.9,18.9,0,1,1-29.82,23.19,28.65,28.65,0,0,1-34.59,12.44,18.9,18.9,0,0,1-31.41-5.78,28.61,28.61,0,0,1-46.71-22.16,28.79,28.79,0,0,1,.89-7.11,18.89,18.89,0,0,1-6.83-35.6A28.62,28.62,0,0,1,36.71,32.18v-.33A18.89,18.89,0,0,1,70.39,20.09a28.62,28.62,0,0,1,55.19,15,19.22,19.22,0,0,1,4.52-.54,18.91,18.91,0,0,1,17.07,27Z"/><path class="cls-2" d="M86.75,140c13.27-18.77,12.28-25,8.09-33.41s-2.39-19.13,0-11.36,9.57,8.37,13.76-5.38S125.34,63.5,120,75.46s-10.17,31.09-2.39,23.92,29.89-12.56,18.53-7.18-39.42,40-47.79,62.7S75.76,155.5,86.75,140Z"/><path class="cls-2" d="M80.21,143.34c-12.73-28.78-17.91-32.63-30-28.83s-13.19.24-5-3.07,11.59-14.15-3.08-22.78-10.84-11.16.18-4.41,20.3,15.91,18.1,5.57,4-28.89,2.8-16.37S76.77,121,82.46,134,85.32,161.67,80.21,143.34Z"/><path class="cls-2" d="M67.35,199.21C69.48,190,86.78,82.16,72,67.49,61.64,57.27,62.62,54,69.78,59.11S83.6,61.31,83,44.31s3-14.73,3.2-1.81,2.4,25.26,10,17.85,26.89-12.22,15.31-6.41C72.43,73.56,91.35,160.71,97.91,199.21Z"/></g></g></svg>