<svg xmlns="http://www.w3.org/2000/svg" viewBox="0 0 152.33 199.61"><defs><style>.cls-1{fill:#d77d3e;}.cls-1,.cls-2,.cls-3{fill-rule:evenodd;}.cls-2{fill:#e69b65;}.cls-3{fill:#814c3c;}</style></defs><g id="Layer_2" data-name="Layer 2"><g id="Objects"><path class="cls-1" d="M67.56,74.31C45,98,13.47,86.68,5,55.69S28.14,10.07,52.36,21.91,76,62.48,67.56,74.31Z"/><path class="cls-1" d="M104.68,88.51c-.31,35.33-33.55,49.75-63.13,31.53S26.07,66.93,54,58.37,102.6,72.92,104.68,88.51Z"/><path class="cls-2" d="M40.86,55.19c15,16.88,5.41,37.94-16.41,42S-5.62,78.63,3.92,62.64,33.2,48.7,40.86,55.19Z"/><path class="cls-1" d="M128.3,65.75C105.76,89.4,74.21,78.13,65.77,47.14S88.89,1.52,113.11,13.36,136.75,53.92,128.3,65.75Z"/><path class="cls-2" d="M140.44,37.35C165,65,149.3,99.51,113.56,106.11S64.28,75.75,79.92,49.55,127.9,26.7,140.44,37.35Z"/><path class="cls-2" d="M79,5.68C96.56,25.51,85.31,50.26,59.68,55S24.34,33.22,35.55,14.43,70-2,79,5.68Z"/><path class="cls-3" d="M57,199.61C75.07,150.93,70.89,60.22,51.52,43.32c-3.44-3,12.9,30.75,11.68,84-.59,25.77-6.51,51.55-16.55,72.29Z"/><path class="cls-3" d="M67.36,119.54c15.46-11.18,34-41.59,30.23-48.85C96.11,67.83,94,80.85,82.76,96.86c-5.44,7.75-10.23,12.55-17.53,16.83Z"/><path class="cls-3" d="M64.75,98.23C50.87,95,29.32,79.36,29.8,73.27c.19-2.4,5.4,6,17.78,13.77,6,3.77,10.68,5.7,17,6.55Z"/></g></g></svg>