<svg xmlns="http://www.w3.org/2000/svg" viewBox="0 0 116.37 191.88"><defs><style>.cls-1{fill:#b9cf4b;}.cls-1,.cls-2{fill-rule:evenodd;}.cls-2{fill:#814c3c;}</style></defs><g id="Layer_2" data-name="Layer 2"><g id="Objects"><path class="cls-1" d="M42.39,153.37c57.08,5.78,88.87-27.9,67.07-63.25S27.77,64.07,6.81,92.92,17.77,148.41,42.39,153.37Z"/><path class="cls-1" d="M46.54,94.77C88.6,99,112,74.21,96,48.17S35.78,29,20.33,50.23,28.41,91.12,46.54,94.77Z"/><path class="cls-1" d="M66.73,46.59C35.85,49.72,18.66,31.5,30.45,12.38S74.64-1.71,86,13.9,80.05,43.91,66.73,46.59Z"/><path class="cls-2" d="M49.45,191.88c4.44-40.24-2.38-154.53,9.26-154.53,8.68,0,4.84,113.2,8.21,154.53Z"/><path class="cls-2" d="M55.19,134.51c9.76-9.52,20.49-28.17,27.38-23,5.14,3.83-14,23.39-18.24,31.92Z"/><path class="cls-2" d="M54.25,108.53C64,99,74.74,80.35,81.64,85.48c5.13,3.83-14,23.39-18.25,31.92Z"/><path class="cls-2" d="M53,82.85c9.76-9.53,20.49-28.17,27.38-23,5.14,3.83-14,23.38-18.24,31.92Z"/><path class="cls-2" d="M60.91,134.51c-9.76-9.52-20.49-28.17-27.38-23-5.14,3.83,14,23.39,18.24,31.92Z"/><path class="cls-2" d="M61.85,108.53c-9.76-9.53-20.49-28.18-27.38-23-5.14,3.83,14,23.39,18.24,31.92Z"/><path class="cls-2" d="M63.1,82.85c-9.76-9.53-20.49-28.17-27.38-23-5.14,3.83,14,23.38,18.25,31.92Z"/></g></g></svg>