<svg xmlns="http://www.w3.org/2000/svg" viewBox="0 0 107.78 202.99"><defs><style>.cls-1{fill:#58ad7a;}.cls-1,.cls-2{fill-rule:evenodd;}.cls-2{fill:#814c3c;}</style></defs><g id="Layer_2" data-name="Layer 2"><g id="Objects"><path class="cls-1" d="M73.5,148.21a11.52,11.52,0,0,1-21,6.28c-.7,0-1.4,0-2.1-.07a20.48,20.48,0,0,1-27.17-13.88,11.51,11.51,0,0,1-9.51-16l-.24-.54A20.47,20.47,0,0,1,7,89.36l0-1A11.51,11.51,0,0,1,9.06,66.55a11.52,11.52,0,0,1,4.7-19A20.45,20.45,0,0,1,34.24,16.69a20.47,20.47,0,0,1,40.55,2.58,11.69,11.69,0,0,1,1.32-.08A11.5,11.5,0,0,1,87.15,34a11.67,11.67,0,0,1,2.14-.2,11.51,11.51,0,0,1,9.17,18.48,20.47,20.47,0,0,1,2.82,32.13,11.52,11.52,0,0,1-1.51,18.88,20.48,20.48,0,0,1-11.84,30,11.51,11.51,0,0,1-10.88,15.3,11.74,11.74,0,0,1-3.37-.5Z"/><path class="cls-2" d="M46.45,203c4.44-44.3-2.38-170.12,9.26-170.12,8.68,0,4.84,124.62,8.21,170.12Z"/><path class="cls-2" d="M50.86,113.45C61,103.43,79.37,86,82.15,88.29c2.06,1.73-14.26,23.23-22.82,35.1Z"/><path class="cls-2" d="M59.86,97.7c-10.18-10-28.52-27.48-31.29-25.16-2.07,1.73,14.26,23.23,22.82,35.1Z"/><path class="cls-2" d="M49.36,78.2C59.53,68.18,77.87,50.72,80.65,53c2.06,1.73-14.26,23.23-22.82,35.1Z"/></g></g></svg>