<svg xmlns="http://www.w3.org/2000/svg" viewBox="0 0 115.55 194.55"><defs><style>.cls-1{fill:#58ad7a;}.cls-1,.cls-2,.cls-3{fill-rule:evenodd;}.cls-2{fill:#814c3c;}.cls-3{fill:#7acf9c;}</style></defs><g id="Layer_2" data-name="Layer 2"><g id="Objects"><path class="cls-1" d="M64.34,53.8C40.28,57.41,26.88,36.37,36.07,14.29S70.5-2,79.34,16,74.71,50.7,64.34,53.8Z"/><path class="cls-2" d="M48.74,194.55C53.17,150.25,46.36,24.42,58,24.42c8.67,0,4.84,124.63,8.21,170.13Z"/><path class="cls-1" d="M108.94,95.89c13.65,15.37,4.93,34.55-14.94,38.21s-27.38-16.87-18.69-31.43S102,90,108.94,95.89Z"/><path class="cls-2" d="M51.44,141.87c20.47-22,28.06-39.68,35-34.55,5.14,3.82-9.48,17.33-25.81,43.43Z"/><path class="cls-3" d="M41.94,121c-12.57,16.26-33,11.25-40.32-7.59s11.5-30,27.42-24.2S46.46,113.09,41.94,121Z"/><path class="cls-2" d="M63,143.34c-20.47-22-28.06-39.69-34.95-34.56-5.14,3.82,9.48,17.33,25.81,43.43Z"/><path class="cls-3" d="M104.31,48.32C118,63.68,109.23,82.86,89.37,86.53S62,69.66,70.67,55.1,97.34,42.4,104.31,48.32Z"/><path class="cls-2" d="M52.2,105.67c20.47-22,28.07-39.68,35-34.56,5.14,3.83-9.49,17.34-25.82,43.44Z"/><path class="cls-1" d="M47.26,76.9c-12.57,16.26-33,11.25-40.33-7.59s11.51-30,27.42-24.2S51.78,69,47.26,76.9Z"/><path class="cls-2" d="M63.64,106.72c-20.47-22-28.07-39.68-35-34.56C23.54,76,38.17,89.5,54.5,115.6Z"/></g></g></svg>