<svg xmlns="http://www.w3.org/2000/svg" viewBox="0 0 93.97 195.43"><defs><style>.cls-1{fill:#338576;}.cls-1,.cls-2{fill-rule:evenodd;}.cls-2{fill:#814c3c;}</style></defs><g id="Layer_2" data-name="Layer 2"><g id="Objects"><path class="cls-1" d="M74.85.1c6.9,2.08,12,32.3,18.88,40.2,1.43,1.62-3.79.32-8.74-2.86C77.45,32.6,69,25.52,65.9,24.86s-13.83,1-20,.62C38.23,25,33.11,23.72,37.19,22,50.12,16.48,69.53-1.5,74.85.1Z"/><path class="cls-1" d="M64.67,23.48c8.06,2.42,14,37.69,22,46.91,1.66,1.9-4.43.38-10.2-3.33C67.71,61.4,57.8,53.14,54.22,52.38c-3.4-.73-16.14,1.17-23.37.72C21.93,52.54,16,51.05,20.72,49,35.81,42.59,58.47,21.61,64.67,23.48Z"/><path class="cls-1" d="M54.92,49.65c8.92,1.64,19.38,38.67,29.13,47.59,2,1.83-4.69.93-11.3-2.36-10.1-5-21.67-12.68-25.58-13.08C43.43,81.42,30,85,22.24,85.33c-9.61.46-16.17-.43-11.32-3.16C26.31,73.51,48.07,48.38,54.92,49.65Z"/><path class="cls-1" d="M49.28,77.13c10,.51,26.81,39.58,38.78,47.94,2.45,1.71-5,1.69-12.73-1-11.78-4-25.56-10.77-29.91-10.63-4.14.12-18.31,5.93-26.8,7.46C8.16,122.83.84,122.8,5.76,119.11,21.37,107.4,41.58,76.73,49.28,77.13Z"/><path class="cls-1" d="M46.54,106.34c11.05-.15,32.35,41.69,46.13,50,2.82,1.71-5.4,2.22-14.09-.15-13.26-3.61-28.93-10-33.71-9.59-4.55.43-19.75,7.84-29,10.13-11.39,2.83-19.46,3.32-14.3-1.1C18,141.67,38,106.45,46.54,106.34Z"/><path class="cls-2" d="M55.38,195.43C37.32,146.75,41.5,56,60.88,39.14c3.44-3-12.9,30.75-11.69,84,.59,25.77,6.51,51.55,16.56,72.29Z"/></g></g></svg>